#!OML:ASF E:/inclinewalkrobotboard/Project1/Captureday1/Session1/subject1.ASF
:FULLY-SPECIFIED
:DEGREES
188
root 0 0 0 85.63610438583216 -33.19719139227666 -56.1196817577866
lowerback -11.450060641058045 9.709164094214332 14.179891881783629
upperback -20.781328431941354 12.308072272481251 3.1222257971628564
thorax -15.211685417123748 4.23374110781578 -3.7846399945537836
lowerneck -8.958377113234263 11.96618063221471 6.244767608379129
upperneck 10.163735516546588 14.259819824277837 9.150114268890054
head 4.531106735521559 7.718779562939666 2.788049332286681
rclavicle 9.404161369644271E-15 7.845363808089555E-15
rhumerus 34.01276602732797 -50.06317633052443 -14.820602390998047
rradius 19.944435127386583
rwrist 40.36544190376246
rhand 0.5770107706121084 2.33150207658141
rfingers 7.125020000000067
rthumb 26.144118029317838 -25.854906808309348
lclavicle 8.984641541163557E-16 2.0206081852488153E-15
lhumerus -7.122266522313725 12.972505648625956 -4.237640765928937
lradius 20.92661355017787
lwrist -38.87186957104214
lhand 0.5276711177254729 34.373822773384916
lfingers 7.125020000000039
lthumb 26.065771186168725 62.49960468888442
rfemur 206.41676644276941 -182.73589850513446 -174.32675130483966
rtibia 56.770993749402756
rfoot 58.36482910873538 -30.995508804022244
rtoes 15.756360078900366
lfemur -54.29943050370626 25.547659469614665 21.296069200852088
ltibia 22.9764257777887
lfoot -66.11921045726385 8.902103476956404
ltoes 60.36438587192195
189
root 0 0 0 85.6293680056646 -33.19069956652292 -56.1131568779691
lowerback -11.446913185419843 9.709699977839389 14.187097301992702
upperback -20.787399023940637 12.308636704710759 3.1250641223547353
thorax -15.22008696232524 4.232870082238241 -3.7840969971219245
lowerneck -8.951553103964745 11.969125659553269 6.243292121710136
upperneck 10.158698381993178 14.264390006524257 9.15725029438103
head 4.527420706861684 7.7210219718112505 2.790400330148343
rclavicle 9.374771958876775E-15 7.84426014587232E-15
rhumerus 33.89870372065753 -50.09124974976838 -14.707104735820359
rradius 19.91866286388409
rwrist 40.36258570684534
rhand 0.5719285622099948 2.3277639847291116
rfingers 7.125020000000066
rthumb 26.13887431712007 -25.860554218172396
lclavicle 8.479671170735005E-16 2.0292365745150127E-15
lhumerus -7.135117468956855 12.979981960391145 -4.2348659226356276
lradius 20.91070557696844
lwrist -38.90860184824347
lhand 0.5215448214195415 34.362035031813264
lfingers 7.125020000000039
lthumb 26.060197489481762 62.48932940119648
rfemur 206.39705936024893 -182.71948779377817 -174.308035937773
rtibia 56.75608937446478
rfoot 58.349423845757755 -31.01651936271842
rtoes 15.76646142526007
lfemur -54.308804728715856 25.554017599965142 21.300010407446763
ltibia 22.987111658650182
lfoot -66.11072107327212 8.911879715656616
ltoes 60.367750618870566
190
root 0 0 0 85.62516394565404 -33.1881445614987 -56.109869070168266
lowerback -11.445177769997207 9.709976599910071 14.190656671356559
upperback -20.790012640409735 12.309005630809077 3.1265149697186674
thorax -15.223944999056334 4.2325220080717 -3.7837763096370267
lowerneck -8.948419890257888 11.97043215072021 6.242595770832445
upperneck 10.15738526029852 14.26638423014859 9.160593493689857
head 4.526147163887143 7.722009347786517 2.7914830194411957
rclavicle 9.404342001824618E-15 7.861166494976146E-15
rhumerus 33.85131063694994 -50.10385467501287 -14.644127240148826
rradius 19.909920469779202
rwrist 40.3714322412464
rhand 0.5708040181206289 2.325228324126627
rfingers 7.125020000000066
rthumb 26.13778473053737 -25.863768531501798
lclavicle 8.599665774647686E-16 2.0471339927126306E-15
lhumerus -7.169776686238973 12.98481715578896 -4.222574561974582
lradius 20.90563316021793
lwrist -38.922145135654304
lhand 0.5155125711433126 34.35586783066029
lfingers 7.125020000000039
lthumb 26.05452068735231 62.48445063967685
rfemur 206.38803160391274 -182.71054283192652 -174.3016786042254
rtibia 56.74921679046395
rfoot 58.339408162759085 -31.025228103296968
rtoes 15.771801360789926
lfemur -54.30811456796176 25.55769832648971 21.300887228468653
ltibia 22.9904274999168
lfoot -66.10767756051432 8.913726207283311
ltoes 60.370346979660766
191
root 0 0 0 85.6212518738804 -33.18629595505247 -56.10694074460758
lowerback -11.443499379897741 9.710218472333713 14.194002915086942
upperback -20.792240038395015 12.30933843465077 3.1278323911449495
thorax -15.22732761946705 4.232204819677212 -3.78355730509642
lowerneck -8.945634279947498 11.971460701656875 6.241872339835357
upperneck 10.156661307218554 14.26796603069134 9.163571889977494
head 4.52517931027658 7.722791607812035 2.7924519841007998
rclavicle 9.417294449225123E-15 7.875759577881096E-15
rhumerus 33.81094608326876 -50.111110268325945 -14.59145823543323
rradius 19.908432947003295
rwrist 40.37796749486776
rhand 0.5695144229977633 2.3244475384996903
rfingers 7.125020000000066
rthumb 26.136575955568244 -25.8651776056699
lclavicle 8.653033233005923E-16 2.063938104122437E-15
lhumerus -7.204216809396243 12.987723463346423 -4.2066348372395765
lradius 20.903910335505344
lwrist -38.931482937978764
lhand 0.5094938911327602 34.35171381701248
lfingers 7.125020000000039
lthumb 26.048830825974697 62.481470645531864
rfemur 206.381048224241 -182.7053254252735 -174.2978753020532
rtibia 56.74436687336002
rfoot 58.32859401574292 -31.030996060490423
rtoes 15.774078294416555
lfemur -54.30822802795453 25.560132988644355 21.301446407434632
ltibia 22.99238672683468
lfoot -66.10358145432043 8.913243737709822
ltoes 60.371696329873004
192
root 0 0 0 85.6194555987127 -33.18565481250704 -56.105597943147984
lowerback -11.442720027325446 9.71031389336191 14.195570733353891
upperback -20.793232544713906 12.309469852719815 3.1284460572412067
thorax -15.228845369608045 4.2320463429078545 -3.7834668388385477
lowerneck -8.94436413709234 11.971911552736273 6.241525179534242
upperneck 10.156397173876387 14.268658318426619 9.164940275116166
head 4.524760570714155 7.723134265172719 2.7929001939863447
rclavicle 9.428946223953715E-15 7.880958679701375E-15
rhumerus 33.78236084960866 -50.11398461099196 -14.560587737062
rradius 19.909087621717003
rwrist 40.380454666260434
rhand 0.5677897005056982 2.3251602658505126
rfingers 7.125020000000066
rthumb 26.134942691025138 -25.864991585773502
lclavicle 8.719101431664744E-16 2.0712140081409665E-15
lhumerus -7.227511320022569 12.988605554787068 -4.196985346697666
lradius 20.903316475578574
lwrist -38.935939550601105
lhand 0.5056965222405687 34.349292566214785
lfingers 7.125020000000039
lthumb 26.04522503693929 62.47971344162048
rfemur 206.37592918660712 -182.70170295566038 -174.29537590182082
rtibia 56.74169128774731
rfoot 58.32235529501679 -31.03545072507983
rtoes 15.774113352525074
lfemur -54.307495307032276 25.561322471554142 21.30189624948315
ltibia 22.99287144692309
lfoot -66.100972217969 8.91239917854798
ltoes 60.372492663680625
